<mxfile host="65bd71144e">
    <diagram id="HIP3nbAZw_EuaXWnEj3U" name="Page-1">
        <mxGraphModel dx="899" dy="398" grid="1" gridSize="10" guides="1" tooltips="1" connect="1" arrows="1" fold="1" page="1" pageScale="1" pageWidth="850" pageHeight="1100" math="0" shadow="0">
            <root>
                <mxCell id="0"/>
                <mxCell id="1" parent="0"/>
                <mxCell id="7" value="http://ics2o.mths.ca" style="swimlane;whiteSpace=wrap;html=1;" parent="1" vertex="1">
                    <mxGeometry x="40" y="40" width="760" height="480" as="geometry"/>
                </mxCell>
                <mxCell id="8" value="Classify Triangles, in JS" style="rounded=0;whiteSpace=wrap;html=1;" vertex="1" parent="7">
                    <mxGeometry y="20" width="760" height="60" as="geometry"/>
                </mxCell>
                <mxCell id="9" value="" style="shape=image;verticalLabelPosition=bottom;labelBackgroundColor=default;verticalAlign=top;aspect=fixed;imageAspect=0;image=data:image/png,iVBORw0KGgoAAAANSUhEUgAAAO0AAADVCAMAAACMuod9AAACH1BMVEX////u5f/i8NmZZv/tfTFwrUf75dYAAACXY/9urETteyyXYv+TW//8+v9sq0GVX//38//+9vHsdRrteSj5/PdnqDjx6v/52cq61av87OHvkFigcv/o8+GFuGanfv/uhkXW5s7g1P/1v6TLtv96slfSv//yo3l/g3xjnjrp18p8NQBoqTqRWP/u7u6+vr7y8vLa2tpTU1MYGBjrcQrKysqcnJyJiYl3d3doaGi6urquiP+tra3f398oKCiSv3dfX18/Pz+EU+SzkP+ioqIdHR05OTlOhiTwmGSZw4DTahrn3f9LS0tycnKnff+tzZrDqP/J3r2ftZN0Rc7zsI33zLW4mP/Xxv/CzrvcxbfEud2NaNv1vJ9PLJCemqTzrIWMTv/Wz+VFhwiktpnV3dCQdsuKX+C/WwLDvc6osaM1XhU9KWaqUxFPgSxiO67Ao//Hr//qYgBZoh2cu4psoEnXg0zcejZYfj9yj2GQsXxVezy7bTnAmYTIqpqxf2WnZT3BYRqpmc+ciMpzSsNsS65yQM56o2DJh2G1qNQpbwC3SADPk3KqYDRiI8myYCdRJ5yncFCNermZfdiCm3J6nmKObdShMwA6AJdeKbmxnOCIcbxuMABEGgAfOwgsIkEqEwAoTQiXRwAKHwApBFsfAEgcFydCHgBDP0wdLxFaOCSPiplnNhVMPTQvNykhD0BAYihFLnNcPZksJzYAFAA2D3NGAAA4gzEFAAAgAElEQVR4nO2diWMa1534vzJInOJGnDJIQkQu4hK3OA3G6ETYICSXX2TFih0ncaU6ztXYiV0nbdK02V83yf6abdM2PZKsk+62290/cL/vzYA4ZmBQqP3LRl+LOd57M8xnvm++x5sxA3Aqp3Iqp3Iqp/ItE78vGo3Fo8ngxno2W4xFw+FE1BdIJIMFL4AvGg6EI5FC9gJpmgrQDVLhQCpFFgoBXyEVoIWp3HoS24f9sB7diPkiSd9Ggu4+WUiEfT5fIRKNRgrBJCnyJqM+nMafBK1XIpEs+XAiCWQlS5KNRBEX02FfTCLJBQLJAqnJpryk6ZKETCPZNBb5yVIQF4JRXIxJwpBMR+FCAgK+JVIvCdNNwJeM0rVwKkwaY0lQEvFFJeGN3BOiXfdDUXJB4sUDkfggiosbWE6KUIVxcqy0ZVIiYfQVI+eDLhWXsjj1p5kWuQhujoBLFyRL3tYX+PEcppmFddRnROJlv/UxQrYkQAgBDx/RvGTZh0dXAHJYOQkeHVEJA7kukVxobiKRRMlSShJBiqKkCMwapSbVS/7WF/jJKmmFu8L9pWkHwW+RPEbIlqTooS4hIioSexh+ckXULSSWirkc0eiShF6apMtT3TFLhBPPEk430swyUTppGcZOkW37gnjsgoR8D3aFODkVWbbtY0NskxTVUhYPP0XOeAAPdokWRbCoQPsvQ0uvYNpB/ZLoEiqelAYjVPnR5r5IWQIL2kxQKp0jfSKFvdm3TitzdH/Rx0nZOhja++LM0XsRh/RkosILzKUVJTaLNEwn0frkCK5fkohjz18i20Vho3k6SBvSgSnQ8RegNpfQqEWxC6UK5BonEo9Gwo+TsiX0W7PsIfsYHa5HC0VJmp79JKN1PGjILS3RSxhpESlNNBqLQJrZ1J9KBSIb8QK58CXEzDUFaXOSSJa1a3gSlxB/aSmde7yY7RKNxySsGY0iRzZZiLHGKSqJL5ETUsjSPku6qJ/onhjmJEQjIGFow3h14tmIEqMuWW/SJsMQuZBKSAIblDbqBWwmkRQlx93/CUg8J2nSxlAVBWJrNmgPji5F00Tr6wlqXWkromzaJQNIu5ReYhxQhHWoG5JovHndZn3gzwbJVnHiovG0FKIQxu5zgbkSnoxEsX+1dEuURjopNbXRdJA4ZJCkL1woss6Jxhb0eiwm0ecu0fa0B5PuEGkabBTSLdDeo0MiJgHwEyMbF9DMtU7v45fo8ZdjdBEluiLH7PXTYIO4XeKnUqz26IWM2i+S7hiRFH05gk86BaEtSIpLbC8NSEiPWCIeiGzkx3mO2bhpDp6IRNlgEBgrRQ4a+3YcjzqajqdRU3GqvgvM1cba4IhkqRgl3rdIO2XE56OaTx3rFs0T451xmahUQgJH5ppOtL7w8UvwmDbKhoobkqVgLkqNVoTtvKzzTUliTNMNCl8oblD8AnsJRFr+NkbqvWyHoKchQE4is3HTSD9u8QeItb0QC3jB76UJwkaYjQ8xlr+whHBJSSJAchwSTXojrZg/S1UdozgpiS+VjqQCYWpwE95Uipy3GNv9/d5wFC2TD61VZJ104WzxyVy2/mw2u74eDObSWYgGY9H4enA9G0+AL51LrqcxDwwWg5JoNuYNx3LYadOSYnC9yF6YadplA8ELxWARz1Ak4ctGC4VkIbqRjcdj0Y04McjkVEoYCYMvDIFsdiNYeCKsw4jf7wV/Vwm74OXRlD/l9/oZ8XqPGz2xS/ZUTuVUTuVUTuVURiWBcAC8TPYRGdQWQ/YYGweEoxsREhREeTfyRn2t74j1yWpSYRJL02jEu+HrrIoFODc5oaRikqV4moyfpDYkAqJxX3NgCSPiKEa7kWxzlLVLwtE0Ow4JgUi6X1aTk6ynMWcgkaa/I7Ulw/Qjzf0STFYTx3wMuZsJTB/B2JaOEHtprrYu2WCzm25J5WLNI/fmliR9RiOiZEAvkKZfnmin9QWzkpEOLfuZcBznAaq2wT05xt4eSNIDCUiCvCP7qY5MMcvdCGWJOVkbJFkKdw5JJYT0NuGSYGnp6GKSDhIPEh9DEGFOeyDq5RsODRwfarLfuFrz7kqEpPLhjss02e8sDS/xJi27b0obiAdjTFkqkg1ms6R7B6JkiR6yL04Kjkc0vJEs07pABpXZDRM+oqdg2579CR/towEfc3shEPY1aSW4gwB7FPhFTFcOJMLUNtCVSHPX3kgcj+OEp6DYRZugs2A4R78FC5KBONEhsvnC67iUzLKjD+wwhjeaY/fgJSOFScaq4MUcl6wfDx1j8YYkSy4UOiCAXdeXSxdjbcdwgQ5xBGJL7En0BslgUJE5/6nWrvEMFsKxEw7SRSSSttH8Aj3sADmaAP3OIq1bl9Dzj+vpNMSCzGhvlM3AmeMLMFYrSaYJMkSVAzp41TQDyJj2MzfREjnWzrZcTaCVzUOS2Dxy+yxFz5SfubuUoqNhKTKJ0/3HT2a66A3ZdlpcLOTQxQXoEbEG20dPy1IK/Ox4Y/NWEDVPCWYPRWpNE2S7LKNs37FrClN9+hlzHmOu53RLP94sg0sK4gztBWYtSg+jSM91khSxdxU7fbJgiXXRUufmT0aLzLclJE2nVGgNFhYZWh87XEhVE6DnP01ORaTlM5NNd9uiXWK2CJL+6b3QdhjR5Dq7/wilDbM3SGPkiAKMvpl6grtx0tGNQjstPXuQCko2vEvs7dhUjiqVQC2x97XWmROQam7ppXPaHdGWJJj+F4BjXwVtuqW0ZAt/d9gWZXabpJ45zF69aXJEdNeFNHvq/MG2Ix5SvM0eRO7KhMmZTNHuxpxbX5QeM359IQn+LNN1s0wwRT11gl1IMjuigWLAy1a0BQpMpw6wgQlBigWbdYUcM2fu9DLhRYC5tlP0MJhd03vdENhgrqETajfejFbwfPkl9IY0wrDqWZcwl6wX6IMHG7Rpc4ulZt9mjHQzckoUiXlCqigqARKMQiL0RG20lJI7dk5Yx/QABoG9hcLscz2LO4p423YdJ30kedxphpUiPfZwOuaPU2NBLVOOIOXIN0cCMaSn93/CWbSTAeqhJSlmhldwgVxx5NCQJRtIrmeZflhE/xJlns4AeqUG8d96M+ZNHV/SEC1ciNBnOGjvp8OtBcYG4nydnlp213Hm7nc4+g3CSeK4yR0q1EOAnF3mzlY4G0fvVtgIBsl9D38YnXqQPPjjTQS83lTiOFQPh1Neb4D03EQ8G48wAUQ8S1OXZvwABQwf2jeCC8fHm/RidTbORHGJMGZV4TDdWZTsy0e1SHZNnlqCcDKGUc43G2/2910drQRpvJB+cjdoH6tEiaPyPrk7lo9ZcmiNNr4jqsXr5MJ65Mnden/8Eomd3uo5lVM5le+0OEckzN60ptHIBLO7mRHJFAtruG0cjTC7M4V0o5CQm9ndonIkcnW+SWscJyIjgjOVikxlzDpTRivHj0uYyrZiugMVS6sTH4tcjh+9HqdiZoorYnZFToS2oIutOkb0LK1C1C1StVqKM4WaVEmlxxOcMR9muUPUnbQyV2Y6Mz3ucZXLLtV4Zlo1nXG5yN80suDKNGmAM9IsM46faY8MizJk4pLx0MqtJbHO2qgiiLjasOrEulJjj6zsNax6a6lUcjhKDiQukUVsiHUDadW2rS2bQqTePlpWiGzLy1KpbdmGbMtnzy6LNpc3ReQPl239aFVlsrywQqYZF3ZvJ7xUAXMZnFjtIa1oFbxOJncMOLGPGyu4bjTDjpGHVq+Fl6uk8BWHFqeN0CxZkVvJyitkUmuASS/WkdKXG7ThIFpFnpTm1WM43Vqs46JyDq6opZuk+PtTMHkd9pllaX/anVdfXTDAa5fAfge8zzjhwwpcwtKFcdUKJno/Gf/oAK69+joc/OjVi9jMDi8Z7X4kNZMm3LQ6C7yhhbtv3L1hgns/B1jVwptv3b0xgStv3rDg8gcN2F1FWu1bb93Hhm/dvT+IVjkDV95+cHkO9t/+8UO1xg9XFo/gigJpJ9/++B08Bz+G/e+D5u1nHw7Qrd9ZngZ4zwXwk05a1OE1uKQyOuESath/YDYa4CUDfOiCHYN3odyf1gRgcYe08Bau/BQNraWEqnxLLsfVcxMOlhbOmUKkzq0fREsOW/PJ1TV4cF4q2oQroGnSwlp9cWwSS5B2cq2uHkR7cG0a/M8g7UddtAa4BAcLLdqdBdKTdy5ipR3u9Kf96eou6aZAad9vrrxBaVOBN5q0AZzROvkAWpHyXSw9XIMf47V7BO9OwfUm7f5z58cmpzSEliwPoN15j5BenAbvTxC6RfuM0UXbNWkP3ntGZkBlHzxzhhSTJreN/Lp1rP7MAneRNATwc1zRwvv4F3KELPDzn+mQNhTCnvwvP1uldXf1g2hF139xBa7U4cpV2+IaafEJ0l5dtIH/F++gbvFckJ78i3d6u0SXlTLYsc8aDEAuXzsYblFaLMAr8z0v2iOGFgtcBriFnRngedT5JVLCQ6sl1y120Z/vYTeF3ftAVj6okhVipQyzaJq0WtStFkq04VsDe/IakIsT1TcGRwD/9AD2PwGY1JzFCWxOwceUliz3s1KyzM7Nm9fuLFw68IIhc2fnYOe1iy/tvEZLL+28tvDSzoeel3Y+Uk1jwc075pu3Xt+5tnPtomvn2ut0Q26bPLv7xsu753b/7339++fO3Xtx9ae7qd23VunK/dl793bfLO3eu3fvBk5IwxQ2HEQr/f6V/f1fXlbg7MqzV969bLvy7j9fuXLl3evv4vT7R+8+nL/y4PoVstxPt+OyBZTx8YWLFy95b8lwhrZ4YYGWkgoV+2kWLKhocaueO7rQr67KV2/cWEXXu3rjPp22VrCO1KKIV5nFG/dXB0cX0vOXL59nZ+dx4TwjzFxxXqRoLvelPRbVrYXxEwgX7cmF/7o9kfDT9hU2TBwVrZyv4kS03fHiYFoZjfBVdDJuNMrGPc2J0YiVrmmjDCuxIdNiEK0uhKInU51Yjx8xWZBjkT6kx3AZI0ssQWY9bTGIVrpIhE7VIuWiVKReZCYi/BMt2s4qFYpFJTYkLRSDaWWMu8mQirLRDtMkPHRhwAQug2HBZcfizAoJJ2nK85JqAC36IJRZkr6Z9A1SSVo4sGgWqqEGLdbCK3J9DRctugG0THwIaHNhcm5xDKNGNMvLSiSRakApItHk9jasYWAxiYtbioG04+OXDuDgGnrcaxgP2+EjJEbHg7QvGQwX7bDz4c6tMoYahPbatVdlA2j1e/fAf/ctjBW9MFuFXR26Iv8q0lpm4X03+N+8dxfDyTfkuhrs3n1zdQCtyPbJPuw/QC/zAOD6GDyLxPDuIpL8WAO/WoMrv9x/uA375wntgwcfC7luSZz4DIYYtxhaDA/hgNAeGPx4Dm7duXNnpUlbbjdn3D1Z/zL4f0bCqF24h7SrJtiFlx3oX3fhfQyeX3nlZTlLe67x8uDrFvOAd99BDV+ehI+RVg37kxqkndzX+N8B+MH169dbtJ+cF0LrQVrjNKnZQV1+VIZLdnjGDAfgNWBE+RFApUmLgddAWrkV/Dd0pCd7f07CRK32fWSEcxhfvI95gYUmQ5QW4K58IK0SadU2UnEFU4Bnt+HBGFyfJ8z+j2ESlT7TpAXD9SFovQfwIfbiV52kzUdmDBUNBhJRYi3mQc+QoYpb7w3WbZN2F879DGlfJk0sr8AuRlKo27urQKKtD3ShGtz7lxuDdcvSTu7DA+zFz9ZJk0/m4V2YJLp9Zx6u/DPsv6NE2v/3q2F0i1o0YDqAuvxwB3bM8Bq2JNct/r2O6ZLTQwa0MoOuW5YWswMMjrEnz8LumyQv2MUU4K4btLOU9pxprwYW0+zgsYumbt8GOI+0Gvgl5jzz8Cy2/NUYzKwR2smZGRvmQjN5IVbKY05dUrm8BxedqdedqQ+9B+9lvDuXvK9WUgcX7xyA4eC1lRTKMwc4+VAAbercqs6U+uleanfPe2839WbIlHrfcu+nqdT7urte8N67fw53dLeBk92BVkqknks9kNqm9t+ppz6ZSf3r1P7lTc3+J96P66n9y+f3/f79f81P4Z6+P4aTH0sF0JLgESPCiwskerxIJiq6QJZkC7du0fWLdP3i4J5MokQ89hv35RgX0j8xmd0X3yDB4/0PXiTrN0g1Tl4ZSCtSXL6M0SIGjRg4kul5DCHxn4KEk+cfPqTrl2n1Ze6efNszEmmNOeq7RMd8dDr2T99aoIukhq4zJc2NWFqleiSy2KI1j0iY3VkasyORGrO7udHI0Ro0cUck7O60oxF2b5MjkiYsnBmRsLAToxELs7uxEYnmlPaU9pT2m9FGv1O0knvfIdrCZ+uW7wyt5Wv5r3e/M7S735Pf3xioXH7aqX807Y5zdLSW7KpY/puT63bquZPgDkO7/tToaM/9Ri4Wvxg5uW4l+yfAHYL25vOfHoyMNkrufsjTg7oyH+3Uc//nt/v/UNq0bCE7Mtrf0SctvjfITvHSPv3wfG545Qqnjdwal/1+Z0S0yc+YdD04QLm8tHGp6GF2aFzBtM4/kCdn/jIi2hwzsCj/6twJaf9TJBL9IKr5R9Fu0HHU5yMjod39NTuMev+p/srltVJ/JCMv//X0kNoVSrvze+aRqS9HQWuJN0fa5J+fSLdopOhA05+GNMxCadfZobaLGyOgPfd5a4T8xcKJaJ9mH5b583CGWSDtzefZUVTZpwMMlRDa6IvHw4pfn4g2zg4lDmmYBdL+pTVkvLD+zWm/Pr75McAJ8dEWm4OmwxlmYbRP3ToeMX7+5jelTXzWdqtnNdvPTvFZqT+2xoiHMsyCaJ2ftt0NGOCFBtNa1jvG1fs6IW7appESDWuYBdEGOx7BuNU3XB5M23I/rBPqN4bBQ/t0+xN9fxKeIAihZb1PS7lf9suFBtJaYvfFHcr93fC08Y5nZf48Ut0Wu54puRj/Rrr9vPOhEvlnyaFpv+i4K3S+KFS5Amhb3qel3H7h8kDayIviTpHn+O0Uj5V6ofMmmGDDLID2Dz2PCy0UT05rSXc/L9RvxIaTtsNIsYZZGO5g2nbv01RuHy80iHb3ez1PR63GeZXLTfv0wy5aoYZ5IO3OpxxPgsn+cFJaS3C1G7bfiA03baeRGsIwD6QNcj4AyO+FBtDSEZpu4R+x4ab9ogdWJPqtkARhEG2PiRrkhQbQPnW/F1YsTw9Fu/8CB+354gh0+xeeJxoXgiej/R3XM438wTIXba+RonJZgGEeQBvpNVEDvFB/2sJnHLBi/hEbTtpeIyXUMPendfZ6n5akh6W9d88ykeOGlf8ag+WsUFoOI9VmmPsh89LSofJ4n2eUb5FBm14F99Ft8B6H+2HkfswS5LoJxkn7Bd8jucQwTz3Xh5eX1ll0cnufdkN1szfZ7deT48Ve98Mq99+y97g6cw/tfrEnkuo0zM+tI+/wPRlx1/s+fn4xtsOR2fejPSf5gO/B699wD8f10E499wW3kWIM8xfPBTWPHvEqt89160xze5+Wcj/lssv9aKP3v+LB/eqDr4XRjk3tS7iNFJW/SfrB9rVSf/myn25lt4am/Vou/+oDLtjPP+BxQhzXrWbj33lhH77wg/U+sP1oMUD+ez8r9SXnoE0f2iQZoeGKLsT35eJVTifERfvb67/lhRW9/ed+ISQ/7QGaqIX/4Kf9FNX792FoO0doeuzUb7hGbLhs8gsiPty/iv72V1u/iJmfNjvgf8iQa5ojXOan7Rqh6dHvU4JoeSIpRq7/TdQ3Yub3t7/va6JY4t5wmZfWssHZiY+VyzViw0HLE0kdS5+ImZe2e3iGW3rvcfLrliv7aReuERsO2vgA2H5DGXy0N58XAssRLvPS9ozQ9Cg3J4RW858DafkjZj7avwtSLeLmhNL2jND00HKM2HBYqT8OpuUdyuCh3eDLfXpou70QHy1viHwsHCM2HLFUHyN1LDyGmZu2b4DchfulIFquEZoe5X7e44R6aQcaKUb+zGmYuWn7B8idcismhPbcVwNVKxa/2HPboJeWL93rEm7DzEnLMzzDo9zOe5zctBbOEZoe5fbc3uylLQ4mpfIwyKFcTlq+4Rlu6bzHyaPbfxOgWo7bBr1WSoiRosJlmLloOUaQ+yr39zcH0vKN0HRL94Oe3bQCjRQVDsPMQev8cijVIm56EK3la2GwPU6oh1agkaLSa5g5aLMXBwN2Snu4zEkrwP0w0v2gZw+tQCPFyL93G+ZeWkEBcpdy28JlLlryCKdA5XY9Y9NDyzVwzivn0wNpiyf4dYC2e5xctJw3CLil67ZBj5X60zC0ostdhrmHdijv01LucbjMRRsV4n5Y5XY+6NlFO4yRovKD2FRfWqEBcqcceyEOWgvnDQIe2s4Rm27aYYwUlU7D3E07pPdpKbcVLnPQJj8TTtt126CblsdIXaf/OKXDMHfRHvT1Pnf4B25agza9tJbcMLCdIzbdtDxG6q+iF/DDLe2GuYu2//DMnR/x1zW9UC/tgBGabul40LOLlvPuHqX9q+hvPLTn03y6vdnf+9z5EX+17FMnN61lQ6j7YZXbPmLTSctrpP7Wh7bdMHfS/mWhr9z6jz6VF4M8uv18KNWKxZ8VeGmf/q8fdMhDVl7Af3+9/PDysZxvk3/amOKi3Xmqv2wE+1Y7OWkHjtD0yNe8tM+hPM0h60/nHgWffvrRo0dRDnn0aJ9TtwNkp/8jjty6/XpI1XY4oW4rxS2aR2PxsUcanloUXn/bl1bAf5Hppk0IDZGPpW3ERtj/9ZqKjWXH+t0ReVy0liDzc5zDiP74QU+BtI/GHo2eVoh00e5Kvje8/PdTw9EKln/4/+M7dyL5ttJ+MzmlPaU9pe1Hax+RsLSWEQmzO/64YThp0X6nxOCaHo0wuzM5rCORKrO7zc2zoxBbvUlrlI1CVB6WNjR0BMUZVbG/uKSWjkSUJ/utTn753/jLpKe03zZamUqlGsxDhR2xUXnIsorvV/CGzmzlXVt10vL/nCyPsJtx0spc5nJZGKuRfTlBpqIal02X2Z84lHXSysUlYbxyHfOjhnKHlbyeweHgplWctam5qbpVqGQApXnKevz72B200y67E5WlMnpUKo9H5vEYjeMqlVHlIT+r61HhiseIlUaPy24nReMys1M17pmGDDZXeVSuDlq5Y7YBevYtFHryU7rM2yjkzC/iyfX0ZRTkt+6stRpZ0YUmcDN9A0p62lzXSascmxs7RFyFQiFSqEVStYKwk5laiYtqKZZKFWqFQrq1ZiMri2fBJpVuTq0ppWjTsVFXT3YZKp5xT9lZKWcqTpXZ7nQaM2VnuWI3OM+Yy3ZjxunEP3t5xWDPqKadlUoFXJ7yCnhwOVMxd/7uub5hKYFVrrc2qlZ51a1vVKuIIa6WGlWTu+EuNcTi6p61sVd1OKCmlzuqpmptAk+GFcT6alXnnp3QtdMq8nB1blIpUh9ubS/mj0T5ue1DRNzcyh8druWPbEfLWGo7PNreVtaRUpGfW9se28IzsVZf3Dxatm2tbSs6aFVGM6rJBWVPBlYQ2VCGFcgYEGelbK9U7FhjmLaX7QajoWKUuaByOwMeuzkDt8F8ZsVsmFZ19GSHY08bkjtgr+qGqtY9q50AK6DmajAxq62ZtFgDDq0JLG6oWfVVsFproJ811UCsncWyRknfTqveIrRq5YxGNDc3eTglhTrMz03NaNS4cATLkK9rjta2cWVrZnJbsTg5v7wMR7aprcmtbchPHmnO2qTttKrydIWhNZYhY3eW7RnIENqywXjbbj5jcIFzPGNYIb9HasYe77JXSIOVFTCC3bXiWoHO61YfapTceLzWEH4marVaQ9sAHbhrE6GQtmGa2IOaW6wtWWpycOvFIcR1gwOsJa0VTFWHWGvSd+lWND+jVGtmrqo1a8tgw3/bk/UjjRKWr27BJq5OzW1uTS2DcmbqqkiqmBpb1MzVx65q8jMwt6ycg7PSTg9ULmfwOjQ7za5y5cx0GWcr9hVDBhfQFE3bSa/OmMsu8/iK2aUqY+deKa+sOFfKmRVn2WU3O2Ud163VVKvu6cXa2iwSafdMJofFjbxWk0mub9RmoaStVd0W7NehiZpYX6thT7bsTZgaptKEye22VLXyzuv2qD5PfpQUDucONfWx7al8/ag+Ux9bnjpU29aOpma2JvNb82O2seXtsWWFaOpQk1+b2Z48nNnKw/ZWfX5tq7MnjzMeCM0QRoBG8tYc7NLmioeUopsxou1SkVLVOHmhDjVmKmLFsMSI1Z6utzPIiTFCr2J1oCFy6HU6eaihLU3odETvOp0Dz4eY/kinmNhkB2mGa1aymdWB9lncSStSq4lZUts2pfhRKJQK5eLk0UyemB+pUi2yKW02BZpjpVRBbLJtE22zUm2zKXGzTYVt06YYGF2opqc9Al0wh79lHUzLh8odtaq+rbjDP8nlrda0Tt7jb0XHXpdxKort+eU2p9TpjqWdy2SzgbEU/6/XC6ZtJ2p/1ZEAGRRLKdRDBRz8tEKzHoG0ApMeobRCsx6BtLIMCqarGfIyKDqj096ZTBCtg7zYqWS18s6szMwhjFaaJy92ItJnhgntslQYrWplhfBmBs0E07rdboLTMXP3zATSKrbziJPPs7N8vjntngmkJWaXpueDZsJ7sp4/aWemeuE9WcF0VMWIevJJ5duT8bUrFh2qhyQCVJh3B7X/nsnJaPsY5B61CqcVbpZ5aMvl8rTLbC47qbOVkSBpfOX4p+s9GV5cLn9LExzyFpFqO4mO5kfsGcAQRI5rgnqyVNGZ+BFTpG7/5frh3qoi84yD02g0rFScNMubPiOTGTE1IC9Qwcxu3FOx3/aM4wrq3qNiYiheWr3VAo1QVdvQ60wWHZPLkVzPMWHBlKFhohG1PqQlaVBbA35axSHA4UxeqqDvHVQo61NKEk9iHKXGbFAqstWPFknghdc2pvNq9YDftMeY2GnIVFz4waixbHZmzCueShnGy3Y7hskVj8dswLQA0wbUfRTq1N8AAAbFSURBVAWTvfYz1U2rL+1BteGuQs2hmzWFqrWqvFaTi/f2ShNaqw4zBSB53Z5Dh4nBnqmGDfbke3uOfrq1YfJzqFzczisxwT/ERE+0uL2lubpcn1fmD89KFydn6lLR/LzocNN2qJir57nHLloHjMkbkty2T1fMSGYvGwFTXg9mOpUzLueZFZUHE1u7quKsGAG7O0bSfWjFplmo1cQlcMuRbRb2JtyYztUmanrLBOnctZoOkarVCa3e4LA0arBnalhmrXJ+WunZ7Sk4ko7VSW4PW/PzIBrbmhvDlG/yLGwdqTF4hq3Duan8/NTi/MzU/Ly6L+24DBM+jxkzWUzpVZjdqqBir2A+Z6i48IK2e4zOMjLakRaVvQLTZRc/rVxsmdBh8AAOkvggTAmJrOKGFvsuatUxa7XK5W5tqaF1ww8xUQJ3SVzVOvrR5vNnAfPZ7Zk1pfrs2JwNRLA5N7MNc2dty5pDxVXM/eaP6rB5Fo42pzT55f66HR/PTOOHvCozMz5ewRRvOuOqrGBMVSm7nOUVFdH59EplpTLuyqg8ZXOmz/uB9Hu1Pd1eQz7b0Itna6g9zOkmahOzFvEepvClWmPWoauZTO5GDdPCRs2hbbixuh+tYntr8aiuOJqZyquXNfP17fr2/MzR/PLa/NbRWH1LeQj57bmxmbX64tzc4lnN0bZiAO3xu1DR/jKhhEfFTEj6hxPMAIm9Ig1U7a6Jw0rp9OKWaZKzb2HQYZpH35Cqp+Xsyxr0rQZ93z6oILaHpHM001Nj6qfGGS4qaJliUUEWMAfEVqR0gE3m8Cv9Kjtbfguji06Rja8Ixm0buxic3OkGNRFEq1Z+I1qZx0PGKjzYT1Wk+3rIUCQJr2RMFe3I7F0u9M3Ypzlo5Y49fVuIxCTp7aPjuDJRO87te5J7cffYRVOY6FfaWqmvKdurOmILaceYO6e/HTebMXSarqCRyrhc5rLRXva4aNZDq6bNKyry0l/6zt9ps3HFXFZx6FY7a9XrrVYyQqPTO9xElSWypi/pQ/qQXF8ShyxuvFCJYFVJL3aL5ex7V7DUiusOLlol5nFK5eKyaBGvUGXetrg2pxbRFzVLlZvLCnWeXKzkusXaxbNqdd7GOXreEoPZnjGs2M+gIwI0wobbduzJdvRChmlDxU4G5tADV5z2MqgMdjDDit3YSxuyTKC7mTCVTCaHya2dndDpTTWt1VSzWGbR21hNs5aQ1o2RlslS08pNJkvJ0piQW2ZrE+hwS7hxSduwhHpp1fNra4fz9TXN0SS62Ln5KcXalto2trY2M3UWTfHhzNyYYm1uBr2xZnlsDPLYbrEPrcwFzkwZbhMXmwFjxQy3MaIwIiXSgnMFIyzDbRc64zNmPA9lVwXKGY6eHNKWtDVHTesugQNjh1pJXwLTLDrViVoVSvDDRk0bspTkIa3VMgtWMNXkszVLqDaBZ6c28UPL3qwJam5dL+0izNSX4Wp9Jg9nQbSNscXatmJxZqu+hgHGWt12VNeotzT5+hiGV2tz6Hfrh311a8TwadpctlfGK2W7EyqGcsUsc1XKzmk8C3aMNrAEzM7pyoqh7CwbXQbOniwHDHu1NWjowRJqgHxWr9fOlva0DZxCA2ahCqhxvQMIO54YKzbVumsN1HkN3Bha74F4lqMnK8dmNg/H5qZmbJNzMAdHsD02oxRNzWu2JrfW1mzzcAjL9fzktgaXNPNX82A7svWjHfcY0fgYnWfIvR8jBv3EDBFjRT4kFaB3g8gazlX0FlGvbkPuPXcoZK063OTdijp3FZ2ruFrS60IYDId0Vqvb7baG9GJ5iFzF5IZJaK+0V6pWHeS96w4s0ZWq3LHU4TZetvW1xUWlbTm/vbxMXquIJepFNVZh+Ly9fLi1qV5U5jcX0ecubw24bpn+XG4PCAXLsW71NKNj/RD7ynVEdphM1ASzN8FavkZO7oc139Pe3IYvuhCJZtZsxNxi0iPtrFJIFaT02HYLii5kgu/lctPyuVC5bojAg9/fKgU72TZpo/3GT5gwDril21HIP+wpk3HXaISlFTtGInvM7myjEVHzCaJTOZVTefLiJRO/v6PMz9nyWyzhcIBZiOAnEQgkjqsKkPhfhptIhcNhwhwuhJOU1o8L4XAqnPRHAwkf4Q2EfSlfEiJYnhi8x/+PxR8oICpVbAF83kIqUPD6IAkFvy/pjaBuwylaGYFwAHlpB/j2ij9cAMRDigClDSBtAsELCX8ixdCmcBVJk97Ct54WfIGAj1y4Yb8X7ZTX70+RGaQAleoNeNFspfwQ9pK/FP337ZZU2PukD+FUTuVUTmXU8j8WBhVxOQozawAAAABJRU5ErkJggg==;" vertex="1" parent="7">
                    <mxGeometry x="510" y="90" width="237" height="213" as="geometry"/>
                </mxCell>
                <mxCell id="10" value="Enter the length of each side of the triangle" style="text;html=1;align=center;verticalAlign=middle;resizable=0;points=[];autosize=1;strokeColor=none;fillColor=none;" vertex="1" parent="7">
                    <mxGeometry x="10" y="90" width="260" height="30" as="geometry"/>
                </mxCell>
                <mxCell id="12" value="Side B" style="text;html=1;align=center;verticalAlign=middle;resizable=0;points=[];autosize=1;strokeColor=none;fillColor=none;" vertex="1" parent="7">
                    <mxGeometry x="40" y="160" width="60" height="30" as="geometry"/>
                </mxCell>
                <mxCell id="13" value="Side C" style="text;html=1;align=center;verticalAlign=middle;resizable=0;points=[];autosize=1;strokeColor=none;fillColor=none;" vertex="1" parent="7">
                    <mxGeometry x="40" y="190" width="60" height="30" as="geometry"/>
                </mxCell>
                <mxCell id="16" value="" style="endArrow=none;html=1;" edge="1" parent="7">
                    <mxGeometry width="50" height="50" relative="1" as="geometry">
                        <mxPoint x="100" y="160" as="sourcePoint"/>
                        <mxPoint x="280" y="160" as="targetPoint"/>
                        <Array as="points"/>
                    </mxGeometry>
                </mxCell>
                <mxCell id="15" value="" style="endArrow=none;html=1;" edge="1" parent="7">
                    <mxGeometry width="50" height="50" relative="1" as="geometry">
                        <mxPoint x="100" y="180" as="sourcePoint"/>
                        <mxPoint x="280" y="180" as="targetPoint"/>
                    </mxGeometry>
                </mxCell>
                <mxCell id="14" value="" style="endArrow=none;html=1;" edge="1" parent="7">
                    <mxGeometry width="50" height="50" relative="1" as="geometry">
                        <mxPoint x="100" y="210" as="sourcePoint"/>
                        <mxPoint x="280" y="210" as="targetPoint"/>
                    </mxGeometry>
                </mxCell>
                <mxCell id="17" value="mm" style="text;html=1;align=center;verticalAlign=middle;resizable=0;points=[];autosize=1;strokeColor=none;fillColor=none;" vertex="1" parent="7">
                    <mxGeometry x="290" y="140" width="40" height="30" as="geometry"/>
                </mxCell>
                <mxCell id="19" value="mm" style="text;html=1;align=center;verticalAlign=middle;resizable=0;points=[];autosize=1;strokeColor=none;fillColor=none;" vertex="1" parent="7">
                    <mxGeometry x="290" y="190" width="40" height="30" as="geometry"/>
                </mxCell>
                <mxCell id="18" value="mm" style="text;html=1;align=center;verticalAlign=middle;resizable=0;points=[];autosize=1;strokeColor=none;fillColor=none;" vertex="1" parent="7">
                    <mxGeometry x="290" y="160" width="40" height="30" as="geometry"/>
                </mxCell>
                <mxCell id="20" value="CHECK!" style="rounded=0;whiteSpace=wrap;html=1;" vertex="1" parent="7">
                    <mxGeometry x="40" y="240" width="80" height="40" as="geometry"/>
                </mxCell>
                <mxCell id="11" value="Side A" style="text;html=1;align=center;verticalAlign=middle;resizable=0;points=[];autosize=1;strokeColor=none;fillColor=none;" vertex="1" parent="1">
                    <mxGeometry x="80" y="175" width="60" height="30" as="geometry"/>
                </mxCell>
            </root>
        </mxGraphModel>
    </diagram>
</mxfile>